<svg width="161" height="26" viewBox="0 0 161 26" fill="none" xmlns="http://www.w3.org/2000/svg">
<g clip-path="url(#clip0_43_5740)">
<path d="M44.2889 9.97656H40.7928C40.5089 9.97656 40.2787 10.2067 40.2787 10.4907V25.2305C40.2787 25.5145 40.5089 25.7447 40.7928 25.7447H44.2889C44.5728 25.7447 44.803 25.5145 44.803 25.2305V10.4907C44.803 10.2067 44.5728 9.97656 44.2889 9.97656Z" fill="#00003C"/>
<path d="M68.8473 2.29541H65.3513C65.0673 2.29541 64.8372 2.52559 64.8372 2.80954V25.2278C64.8372 25.5117 65.0673 25.7419 65.3513 25.7419H68.8473C69.1313 25.7419 69.3615 25.5117 69.3615 25.2278V2.80954C69.3615 2.52559 69.1313 2.29541 68.8473 2.29541Z" fill="#00003C"/>
<path d="M99.0467 9.90723C96.2705 9.90723 94.9337 9.93114 91.3349 9.97657C91.265 9.96658 91.1938 9.97299 91.1269 9.99529C91.0599 10.0176 90.9991 10.0552 90.9492 10.1051C90.8994 10.155 90.8618 10.2158 90.8395 10.2827C90.8172 10.3496 90.8107 10.4209 90.8207 10.4907V25.2305C90.8107 25.3004 90.8172 25.3716 90.8395 25.4385C90.8618 25.5055 90.8994 25.5663 90.9492 25.6162C90.9991 25.6661 91.0599 25.7037 91.1269 25.726C91.1938 25.7483 91.265 25.7547 91.3349 25.7447H94.8309C94.9008 25.7547 94.972 25.7483 95.0389 25.726C95.1058 25.7037 95.1667 25.6661 95.2166 25.6162C95.2664 25.5663 95.304 25.5055 95.3263 25.4385C95.3486 25.3716 95.355 25.3004 95.345 25.2305V13.2311H97.6765C100.35 13.2311 100.967 13.9867 100.967 16.8324V25.2305C100.957 25.3004 100.963 25.3716 100.986 25.4385C101.008 25.5055 101.046 25.5663 101.095 25.6162C101.145 25.6661 101.206 25.7037 101.273 25.726C101.34 25.7483 101.411 25.7547 101.481 25.7447H104.977C105.047 25.7547 105.118 25.7483 105.185 25.726C105.252 25.7037 105.313 25.6661 105.363 25.6162C105.413 25.5663 105.45 25.5055 105.473 25.4385C105.495 25.3716 105.501 25.3004 105.491 25.2305V15.7683C105.491 11.0383 102.065 9.90723 99.0467 9.90723Z" fill="#00003C"/>
<path d="M123.27 2.39111H119.772C119.43 2.39111 119.258 2.56329 119.258 3.04393V9.87343H115.693C112.345 9.87343 108.803 10.9017 108.803 17.8603C108.803 24.6468 112.335 25.8113 115.693 25.8113C120.047 25.8113 121.417 25.7802 123.27 25.7443C123.34 25.7533 123.411 25.7462 123.477 25.7236C123.544 25.7009 123.604 25.6633 123.654 25.6136C123.704 25.564 123.741 25.5036 123.764 25.4371C123.786 25.3707 123.794 25.2999 123.785 25.2302V3.05111C123.785 2.57046 123.612 2.39111 123.27 2.39111ZM119.258 22.5209H116.584C114.219 22.5209 113.328 21.3898 113.328 17.9273C113.328 14.2949 114.219 13.2308 116.584 13.2308H119.258V22.5209Z" fill="#00003C"/>
<path d="M131.583 25.8481C133.265 25.7434 134.543 24.2952 134.439 22.6132C134.334 20.9313 132.886 19.6527 131.204 19.7573C129.522 19.862 128.243 21.3102 128.348 22.9922C128.453 24.6741 129.901 25.9527 131.583 25.8481Z" fill="#FF0050"/>
<path d="M42.5409 6.10255C44.2261 6.10255 45.5922 4.73644 45.5922 3.05127C45.5922 1.3661 44.2261 0 42.5409 0C40.8557 0 39.4896 1.3661 39.4896 3.05127C39.4896 4.73644 40.8557 6.10255 42.5409 6.10255Z" fill="#00003C"/>
<path d="M80.7415 9.90723C77.9318 9.90723 76.3894 9.9431 74.5385 9.97657C74.4665 9.97004 74.394 9.9799 74.3264 10.0054C74.2588 10.031 74.1978 10.0715 74.1481 10.124C74.0984 10.1764 74.0612 10.2395 74.0394 10.3084C74.0175 10.3773 74.0116 10.4503 74.022 10.5218V12.7146C74.0119 12.7847 74.0184 12.8561 74.0408 12.9233C74.0632 12.9904 74.101 13.0514 74.1512 13.1013C74.2014 13.1513 74.2625 13.1888 74.3298 13.2109C74.397 13.233 74.4685 13.2391 74.5385 13.2287H79.1657C81.8391 13.2287 82.5254 13.9844 82.5254 15.2517V15.9691H78.1015C74.5385 15.9691 72.4462 17.0667 72.4796 20.6991C72.5155 24.5729 74.572 25.8068 78.1374 25.8068C83.2452 25.8068 84.6847 25.7686 86.5356 25.7399C86.6053 25.7494 86.6763 25.7426 86.743 25.7201C86.8097 25.6976 86.8703 25.6601 86.9201 25.6103C86.9699 25.5605 87.0075 25.4999 87.03 25.4332C87.0524 25.3665 87.0592 25.2955 87.0497 25.2258V15.4215C87.0425 11.0383 83.6206 9.90723 80.7415 9.90723ZM82.5254 22.5212H79.0963C77.6902 22.5212 77.0398 22.1099 77.0063 20.7039C76.9729 19.2978 77.6568 18.8889 79.0628 18.8889H82.5254V22.5212Z" fill="#00003C"/>
<path d="M58.0483 16.935L53.9688 15.5983C53.0434 15.2898 52.7732 15.0148 52.7732 14.3285C52.7732 13.5394 53.1845 13.1974 54.4853 13.1974H60.3798C60.4506 13.2078 60.5228 13.2013 60.5906 13.1785C60.6584 13.1557 60.7198 13.1172 60.7699 13.0662C60.82 13.0151 60.8574 12.953 60.8789 12.8848C60.9005 12.8166 60.9056 12.7443 60.894 12.6737V10.4546C60.903 10.385 60.8959 10.3142 60.8732 10.2477C60.8505 10.1812 60.8129 10.1208 60.7633 10.0712C60.7136 10.0215 60.6532 9.98392 60.5868 9.96127C60.5203 9.93861 60.4495 9.9315 60.3798 9.94049C58.529 9.90462 57.0321 9.87354 53.8325 9.87354C50.633 9.87354 48.3469 10.83 48.3469 13.9865V14.5676C48.3469 16.3515 49.478 17.9967 51.8095 18.7858L55.7168 20.0867C56.7475 20.431 56.9125 20.6367 56.9125 21.2823C56.9125 22.1743 56.5012 22.4493 55.5423 22.4493H49.1026C49.0327 22.4393 48.9615 22.4457 48.8946 22.468C48.8276 22.4903 48.7668 22.5279 48.7169 22.5778C48.667 22.6277 48.6295 22.6885 48.6072 22.7554C48.5849 22.8223 48.5785 22.8936 48.5884 22.9634V25.1897C48.5785 25.2595 48.5849 25.3307 48.6072 25.3977C48.6295 25.4646 48.667 25.5254 48.7169 25.5753C48.7668 25.6252 48.8276 25.6628 48.8946 25.6851C48.9615 25.7074 49.0327 25.7138 49.1026 25.7038C50.9534 25.7397 52.3236 25.7732 55.5471 25.7732C59.4544 25.7732 61.3746 24.8477 61.3746 21.6267V21.0432C61.3746 19.5391 60.7911 17.8245 58.0483 16.935Z" fill="#00003C"/>
<path d="M143.013 9.97656H139.517C139.233 9.97656 139.003 10.2067 139.003 10.4907V25.2305C139.003 25.5145 139.233 25.7447 139.517 25.7447H143.013C143.297 25.7447 143.527 25.5145 143.527 25.2305V10.4907C143.527 10.2067 143.297 9.97656 143.013 9.97656Z" fill="#00003C"/>
<path d="M141.483 6.08251C143.164 5.9629 144.429 4.50328 144.31 2.82236C144.19 1.14144 142.731 -0.124256 141.05 -0.00465073C139.369 0.114955 138.103 1.57457 138.223 3.25549C138.342 4.93641 139.802 6.20211 141.483 6.08251Z" fill="#00003C"/>
<path d="M156.775 16.935L152.695 15.5983C151.77 15.2898 151.5 15.0148 151.5 14.3285C151.5 13.5394 151.911 13.1974 153.214 13.1974H159.111C159.181 13.2069 159.253 13.1998 159.32 13.1767C159.387 13.1535 159.448 13.1149 159.498 13.064C159.547 13.013 159.584 12.9512 159.605 12.8834C159.627 12.8157 159.632 12.7438 159.62 12.6737V10.4546C159.629 10.385 159.622 10.3142 159.6 10.2477C159.577 10.1812 159.539 10.1208 159.49 10.0712C159.44 10.0215 159.38 9.98392 159.313 9.96127C159.247 9.93861 159.176 9.9315 159.106 9.94049C157.255 9.90462 155.758 9.87354 152.559 9.87354C149.359 9.87354 147.064 10.8324 147.064 13.9865V14.5676C147.064 16.3515 148.195 17.9967 150.526 18.7858L154.443 20.0867C155.471 20.431 155.639 20.6367 155.639 21.2823C155.639 22.1743 155.228 22.4493 154.266 22.4493H147.827C147.756 22.4374 147.683 22.4426 147.614 22.4644C147.545 22.4862 147.483 22.524 147.432 22.5747C147.381 22.6253 147.342 22.6874 147.32 22.7559C147.297 22.8243 147.292 22.8971 147.303 22.9682V25.1945C147.293 25.2642 147.3 25.3352 147.323 25.4019C147.345 25.4686 147.383 25.5292 147.432 25.579C147.482 25.6288 147.543 25.6663 147.61 25.6888C147.676 25.7113 147.747 25.7181 147.817 25.7086C149.668 25.7445 151.04 25.7779 154.261 25.7779C158.171 25.7779 160.089 24.8525 160.089 21.6315V21.0432C160.099 19.5391 159.517 17.8245 156.775 16.935Z" fill="#00003C"/>
<path d="M6.10249 22.7959C6.10698 23.1978 6.03111 23.5966 5.87936 23.9688C5.72761 24.3411 5.50302 24.6792 5.21879 24.9635C4.93455 25.2477 4.5964 25.4723 4.22417 25.624C3.85195 25.7758 3.45316 25.8516 3.05122 25.8472C2.24197 25.8472 1.46587 25.5257 0.893642 24.9535C0.321417 24.3812 -5.63356e-05 23.6051 -5.63356e-05 22.7959C-5.63356e-05 21.9866 0.321417 21.2105 0.893642 20.6383C1.46587 20.0661 2.24197 19.7446 3.05122 19.7446C3.45316 19.7401 3.85195 19.816 4.22417 19.9677C4.5964 20.1195 4.93455 20.3441 5.21879 20.6283C5.50302 20.9126 5.72761 21.2507 5.87936 21.6229C6.03111 21.9952 6.10698 22.3939 6.10249 22.7959ZM12.9129 19.7446C12.3098 19.7465 11.7208 19.9271 11.2203 20.2635C10.7198 20.5999 10.3302 21.0771 10.1007 21.6348C9.8712 22.1925 9.81213 22.8057 9.93095 23.397C10.0498 23.9883 10.3411 24.5311 10.7682 24.9568C11.1953 25.3826 11.739 25.6723 12.3307 25.7892C12.9223 25.9062 13.5353 25.8452 14.0923 25.614C14.6493 25.3827 15.1253 24.9917 15.4601 24.4901C15.795 23.9885 15.9737 23.399 15.9737 22.7959C15.9785 22.393 15.9026 21.9933 15.7504 21.6203C15.5981 21.2473 15.3727 20.9086 15.0874 20.6241C14.8021 20.3397 14.4626 20.1153 14.0891 19.9643C13.7157 19.8132 13.3157 19.7385 12.9129 19.7446ZM22.7864 19.7446C22.183 19.7446 21.593 19.9236 21.0913 20.2588C20.5895 20.5941 20.1984 21.0707 19.9674 21.6282C19.7365 22.1858 19.6761 22.7993 19.7938 23.3912C19.9115 23.9831 20.2021 24.5267 20.6289 24.9535C21.0556 25.3802 21.5993 25.6708 22.1912 25.7885C22.7831 25.9063 23.3966 25.8458 23.9541 25.6149C24.5117 25.384 24.9882 24.9929 25.3235 24.4911C25.6588 23.9893 25.8377 23.3994 25.8377 22.7959C25.8422 22.3948 25.7666 21.9968 25.6155 21.6252C25.4643 21.2536 25.2406 20.9159 24.9574 20.6318C24.6742 20.3477 24.3371 20.1229 23.966 19.9705C23.5949 19.8182 23.1972 19.7414 22.796 19.7446H22.7864ZM12.9224 9.87341C12.3184 9.87342 11.728 10.0527 11.226 10.3885C10.724 10.7243 10.3329 11.2015 10.1023 11.7598C9.8717 12.318 9.81197 12.9322 9.93068 13.5244C10.0494 14.1166 10.3412 14.6602 10.7691 15.0865C11.197 15.5127 11.7418 15.8024 12.3345 15.9188C12.9272 16.0352 13.5411 15.973 14.0984 15.7402C14.6557 15.5075 15.1314 15.1145 15.4653 14.6112C15.7991 14.1078 15.9761 13.5167 15.9737 12.9127C15.9773 12.5108 15.9004 12.1122 15.7475 11.7404C15.5947 11.3687 15.369 11.0312 15.0838 10.748C14.7986 10.4648 14.4595 10.2415 14.0867 10.0913C13.7139 9.9411 13.3148 9.86702 12.9129 9.87341H12.9224ZM22.796 9.87341C22.192 9.87342 21.6016 10.0527 21.0996 10.3885C20.5975 10.7243 20.2065 11.2015 19.9759 11.7598C19.7453 12.318 19.6856 12.9322 19.8043 13.5244C19.923 14.1166 20.2148 14.6602 20.6427 15.0865C21.0706 15.5127 21.6154 15.8024 22.2081 15.9188C22.8008 16.0352 23.4147 15.973 23.972 15.7402C24.5293 15.5075 25.005 15.1145 25.3389 14.6112C25.6727 14.1078 25.8497 13.5167 25.8473 12.9127C25.8505 12.5117 25.7737 12.1141 25.6213 11.7431C25.469 11.3721 25.2441 11.0352 24.96 10.7522C24.6759 10.4692 24.3381 10.2457 23.9665 10.0948C23.595 9.94389 23.197 9.86863 22.796 9.87341ZM3.05122 -0.000178574C2.64927 -0.00466283 2.25048 0.0711983 1.87826 0.222951C1.50604 0.374704 1.16788 0.59929 0.883647 0.883525C0.599412 1.16776 0.374826 1.50592 0.223073 1.87814C0.0713201 2.25036 -0.00454059 2.64915 -5.63356e-05 3.05109C-0.00454059 3.45304 0.0713201 3.85183 0.223073 4.22405C0.374826 4.59627 0.599412 4.93443 0.883647 5.21866C1.16788 5.5029 1.50604 5.72748 1.87826 5.87924C2.25048 6.03099 2.64927 6.10685 3.05122 6.10237C3.45316 6.10685 3.85195 6.03099 4.22417 5.87924C4.5964 5.72748 4.93455 5.5029 5.21879 5.21866C5.50302 4.93443 5.72761 4.59627 5.87936 4.22405C6.03111 3.85183 6.10698 3.45304 6.10249 3.05109C6.10698 2.64915 6.03111 2.25036 5.87936 1.87814C5.72761 1.50592 5.50302 1.16776 5.21879 0.883525C4.93455 0.59929 4.5964 0.374704 4.22417 0.222951C3.85195 0.0711983 3.45316 -0.00466283 3.05122 -0.000178574ZM12.9129 -0.000178574C12.5118 -0.00338748 12.1142 0.0734334 11.7432 0.225788C11.3722 0.378142 11.0354 0.602968 10.7523 0.887106C10.4693 1.17124 10.2458 1.50899 10.0949 1.88056C9.94401 2.25213 9.86875 2.65008 9.87354 3.05109C9.86212 3.45882 9.93257 3.8647 10.0807 4.24473C10.2289 4.62477 10.4517 4.97124 10.7361 5.26367C11.0204 5.5561 11.3605 5.78855 11.7362 5.94727C12.112 6.106 12.5157 6.18778 12.9236 6.18778C13.3315 6.18778 13.7353 6.106 14.111 5.94727C14.4867 5.78855 14.8268 5.5561 15.1112 5.26367C15.3955 4.97124 15.6184 4.62477 15.7665 4.24473C15.9147 3.8647 15.9851 3.45882 15.9737 3.05109C15.9782 2.64833 15.902 2.24875 15.7497 1.87589C15.5973 1.50302 15.3719 1.16443 15.0866 0.880067C14.8014 0.595701 14.4621 0.371317 14.0888 0.22014C13.7154 0.0689625 13.3156 -0.00594876 12.9129 -0.000178574ZM22.796 -0.000178574C22.3941 -0.00466283 21.9953 0.0711983 21.6231 0.222951C21.2508 0.374704 20.9127 0.59929 20.6284 0.883525C20.3442 1.16776 20.1196 1.50592 19.9679 1.87814C19.8161 2.25036 19.7403 2.64915 19.7447 3.05109C19.7447 3.86034 20.0662 4.63644 20.6384 5.20867C21.2107 5.78089 21.9868 6.10237 22.796 6.10237C23.6053 6.10237 24.3814 5.78089 24.9536 5.20867C25.5258 4.63644 25.8473 3.86034 25.8473 3.05109C25.8518 2.64915 25.7759 2.25036 25.6242 1.87814C25.4724 1.50592 25.2478 1.16776 24.9636 0.883525C24.6793 0.59929 24.3412 0.374704 23.969 0.222951C23.5967 0.0711983 23.198 -0.00466283 22.796 -0.000178574Z" fill="url(#paint0_linear_43_5740)"/>
<path d="M1.87828 10.0833C2.2505 9.93156 2.64929 9.85571 3.05124 9.86019C3.45318 9.85571 3.85197 9.93156 4.22419 10.0833C4.59641 10.2351 4.93457 10.4597 5.21881 10.7439C5.50304 11.0281 5.72763 11.3663 5.87938 11.7385C6.03113 12.1107 6.10699 12.5095 6.10251 12.9115C6.10699 13.3134 6.03113 13.7122 5.87938 14.0844C5.72763 14.4566 5.50304 14.7948 5.21881 15.079C4.93457 15.3633 4.59641 15.5879 4.22419 15.7396C3.85197 15.8914 3.45318 15.9672 3.05124 15.9627C2.64929 15.9672 2.2505 15.8914 1.87828 15.7396C1.50606 15.5879 1.1679 15.3633 0.883668 15.079C0.599433 14.7948 0.374847 14.4566 0.223094 14.0844C0.0713408 13.7122 -0.00452121 13.3134 -3.69504e-05 12.9115C-0.00452121 12.5095 0.0713408 12.1107 0.223094 11.7385C0.374847 11.3663 0.599433 11.0281 0.883668 10.7439C1.1679 10.4597 1.50606 10.2351 1.87828 10.0833Z" fill="url(#paint1_linear_43_5740)"/>
</g>
<defs>
<linearGradient id="paint0_linear_43_5740" x1="0.882346" y1="0.882203" x2="24.9625" y2="24.9624" gradientUnits="userSpaceOnUse">
<stop stop-color="#0161FD"/>
<stop offset="0.25" stop-color="#3F46D2"/>
<stop offset="0.51" stop-color="#812EA4"/>
<stop offset="0.77" stop-color="#C21578"/>
<stop offset="1" stop-color="#FD0050"/>
</linearGradient>
<linearGradient id="paint1_linear_43_5740" x1="0.882346" y1="0.882203" x2="24.9625" y2="24.9624" gradientUnits="userSpaceOnUse">
<stop stop-color="#0161FD"/>
<stop offset="0.25" stop-color="#3F46D2"/>
<stop offset="0.51" stop-color="#812EA4"/>
<stop offset="0.77" stop-color="#C21578"/>
<stop offset="1" stop-color="#FD0050"/>
</linearGradient>
<clipPath id="clip0_43_5740">
<rect width="160.099" height="25.8473" fill="white"/>
</clipPath>
</defs>
</svg>
